<?xml version="1.0" standalone="no"?><!DOCTYPE svg PUBLIC "-//W3C//DTD SVG 1.1//EN" "http://www.w3.org/Graphics/SVG/1.1/DTD/svg11.dtd"><svg t="1707828462049" class="icon" viewBox="0 0 1024 1024" version="1.1" xmlns="http://www.w3.org/2000/svg" p-id="4343" xmlns:xlink="http://www.w3.org/1999/xlink" width="200" height="200"><path d="M378.88 311.04c6.4 5.12 10.24 8.32 10.24 10.88 0 3.2-5.12 5.12-16 6.4-8.32 1.92-22.4 12.8-30.72 24.32-19.2 24.32-39.04 49.92-60.16 74.88v280.32c0 63.36 0 99.84 2.56 136.96v5.12c0 8.96-3.2 13.44-21.12 23.04-8.32 5.12-14.08 8.32-18.56 8.32s-5.76-5.12-5.76-17.28v-12.8c2.56-42.24 3.2-97.92 3.2-144.64V474.24c-38.4 46.08-77.44 88.32-114.56 124.16l-8.96-8.32C216.32 470.4 271.36 393.6 337.92 281.6l40.96 29.44z m3.2-149.76c5.12 5.76 8.32 10.24 8.32 12.8s-1.92 2.56-16 2.56c-10.24 0-23.04 5.76-33.28 14.08C262.4 259.84 227.2 288 144.64 343.68l-4.48-10.24c75.52-68.48 144.64-136.32 204.8-211.2l37.12 39.04zM512 640.64c6.4 3.84 10.24 7.68 10.24 10.24s-4.48 4.48-13.44 6.4c-10.24 2.56-19.84 10.88-27.52 19.84-62.72 74.88-108.8 122.88-162.56 167.04l-5.12-7.04c57.6-69.76 122.24-157.44 158.08-222.72l40.32 26.24zM638.08 140.8c8.32 5.12 12.16 8.32 12.16 10.88s-3.84 5.12-12.16 6.4c-10.24 2.56-19.2 6.4-24.96 10.88 64 105.6 186.88 201.6 290.56 210.56l-0.64 10.88c-33.28 0-49.28 8.32-62.08 26.88-3.2 3.84-5.12 6.4-8.32 6.4S691.2 345.6 603.52 180.48c-75.52 121.6-143.36 211.2-266.24 320.64l-7.04-8.32c114.56-121.6 199.04-253.44 260.48-377.6l47.36 25.6z m199.68 410.24c7.68 7.68 10.88 11.52 10.88 14.08 0 3.2-5.12 3.84-14.08 3.84H625.28v234.88c0 45.44-3.2 58.88-48 80.64-5.12 2.56-8.32 4.48-11.52 4.48-4.48 0-5.76-3.2-8.32-10.88-8.32-22.4-31.36-37.12-90.88-57.6l2.56-10.24c47.36 10.24 75.52 14.72 93.44 14.72 22.4 0 24.32-8.32 24.32-21.76V568.96H429.44c-17.28 0-41.6 3.2-55.68 8.96l-23.04-30.08c20.48 1.28 41.6 3.2 60.16 3.2h174.72V434.56h-61.44c-17.28 0-41.6 3.2-55.68 8.96l-23.04-30.72c20.48 1.92 41.6 3.2 60.8 3.2h168.32l30.72-41.6 41.6 41.6c7.68 7.68 10.88 11.52 10.88 14.72 0 2.56-3.84 3.2-14.08 3.2H625.28V550.4h135.04l33.92-44.16 43.52 44.8z m-156.16 90.88c82.56 39.68 127.36 74.24 151.68 107.52 8.96 13.44 13.44 26.88 13.44 37.12 0 19.2-10.24 33.28-21.12 33.28-13.44 0-19.2-8.32-28.16-31.36-13.44-33.28-50.56-86.4-121.6-138.24l5.76-8.32z" fill="#F15A24" p-id="4344"></path></svg>